# xmcd
#
# Track frame offsets:
#	150
#	16935
#	33079
#	49322
#	68088
#	85915
#	100281
#	116433
#	132805
#	149905
#	167961
#	184532
#	199180
#	217410
#	235338
#	249649
#	266769
#	286637
#	299826
#
# Disc length: 4222 seconds
#
# Revision: 0
# Processed by: cddbd v1.5.2PL0 Copyright (c) Steve Scherf et al.
# Submitted via: dBpowerAMP V4.0
#
DISCID=2b107c13
DTITLE=Various Artist - CDX 447 April 2008
DYEAR=2008
DGENRE=Country
TTITLE0=01 Alan Jackson - Good Time [radio edit]
TTITLE1=02 Bucky Covington - I'll Walk
TTITLE2=03 Laura Bryna -Life Is Good
TTITLE3=04 Steve Holy - Might Have Been
TTITLE4=05 Cowboy Crush - Tougher Than A Man
TTITLE5=06 Chris Young - Voices
TTITLE6=07 Ray Stevens - Smokey Mountain Rattlesnake Retreat
TTITLE7=08 Heartland - I Loved Her First
TTITLE8=09 Bailey Grey - Let The Music Play
TTITLE9=10 Kacey Jones - What Will I Do
TTITLE10=11 Brock Hawkins - Both Sides Of The Door
TTITLE11=12 Becky Schlegel - Bound For Tennessee
TTITLE12=13 Chris Hanners - He'll Be Home Soon
TTITLE13=14 Derek Sholl - Here
TTITLE14=15 Brett Hill - He's Still The Same
TTITLE15=16 Daniel Smith - Living The Good Life
TTITLE16=17 Indian Rodeo - I'm Country
TTITLE17=18 Bill Wence - The Coming Home Song
TTITLE18=19 Jonalee White - Wake Me
EXTD=
EXTT0=
EXTT1=
EXTT2=
EXTT3=
EXTT4=
EXTT5=
EXTT6=
EXTT7=
EXTT8=
EXTT9=
EXTT10=
EXTT11=
EXTT12=
EXTT13=
EXTT14=
EXTT15=
EXTT16=
EXTT17=
EXTT18=
PLAYORDER=
